<svg width="360" height="435" viewBox="0 0 360 435" fill="none" xmlns="http://www.w3.org/2000/svg">
<g clip-path="url(#clip0_6_6184)">
<g opacity="0.4" filter="url(#filter0_d_6_6184)">
<rect x="39.7198" y="156.084" width="757.268" height="422.601" rx="54.4825" transform="rotate(-45 39.7198 156.084)" fill="#FDCB6E"/>
</g>
</g>
<g clip-path="url(#clip1_6_6184)">
<path d="M328.324 78.3998C330.851 78.3998 332.899 76.3515 332.899 73.8248C332.899 71.2981 330.851 69.2498 328.324 69.2498C325.797 69.2498 323.749 71.2981 323.749 73.8248C323.749 76.3515 325.797 78.3998 328.324 78.3998Z" fill="#FDCB6E"/>
<path d="M343.574 63.1499C346.1 63.1499 348.149 61.1016 348.149 58.575C348.149 56.0483 346.1 54 343.574 54C341.047 54 338.999 56.0483 338.999 58.575C338.999 61.1016 341.047 63.1499 343.574 63.1499Z" fill="#FDCB6E"/>
<path d="M358.823 78.3998C361.35 78.3998 363.398 76.3515 363.398 73.8248C363.398 71.2981 361.35 69.2498 358.823 69.2498C356.297 69.2498 354.249 71.2981 354.249 73.8248C354.249 76.3515 356.297 78.3998 358.823 78.3998Z" fill="#FDCB6E"/>
<path d="M297.824 108.899C300.351 108.899 302.399 106.851 302.399 104.324C302.399 101.798 300.351 99.7495 297.824 99.7495C295.298 99.7495 293.249 101.798 293.249 104.324C293.249 106.851 295.298 108.899 297.824 108.899Z" fill="#FDCB6E"/>
<path d="M313.074 93.6496C315.601 93.6496 317.649 91.6013 317.649 89.0746C317.649 86.548 315.601 84.4997 313.074 84.4997C310.547 84.4997 308.499 86.548 308.499 89.0746C308.499 91.6013 310.547 93.6496 313.074 93.6496Z" fill="#FDCB6E"/>
<path d="M328.324 108.899C330.851 108.899 332.899 106.851 332.899 104.324C332.899 101.798 330.851 99.7495 328.324 99.7495C325.797 99.7495 323.749 101.798 323.749 104.324C323.749 106.851 325.797 108.899 328.324 108.899Z" fill="#FDCB6E"/>
<path d="M343.574 93.6496C346.1 93.6496 348.149 91.6013 348.149 89.0746C348.149 86.548 346.1 84.4997 343.574 84.4997C341.047 84.4997 338.999 86.548 338.999 89.0746C338.999 91.6013 341.047 93.6496 343.574 93.6496Z" fill="#FDCB6E"/>
<path d="M358.823 108.899C361.35 108.899 363.398 106.851 363.398 104.324C363.398 101.798 361.35 99.7495 358.823 99.7495C356.297 99.7495 354.249 101.798 354.249 104.324C354.249 106.851 356.297 108.899 358.823 108.899Z" fill="#FDCB6E"/>
<path d="M267.324 139.399C269.851 139.399 271.899 137.351 271.899 134.824C271.899 132.297 269.851 130.249 267.324 130.249C264.798 130.249 262.75 132.297 262.75 134.824C262.75 137.351 264.798 139.399 267.324 139.399Z" fill="#FDCB6E"/>
<path d="M282.574 124.149C285.101 124.149 287.149 122.101 287.149 119.574C287.149 117.048 285.101 114.999 282.574 114.999C280.048 114.999 277.999 117.048 277.999 119.574C277.999 122.101 280.048 124.149 282.574 124.149Z" fill="#FDCB6E"/>
<path d="M297.824 139.399C300.351 139.399 302.399 137.351 302.399 134.824C302.399 132.297 300.351 130.249 297.824 130.249C295.298 130.249 293.249 132.297 293.249 134.824C293.249 137.351 295.298 139.399 297.824 139.399Z" fill="#FDCB6E"/>
<path d="M313.074 124.149C315.601 124.149 317.649 122.101 317.649 119.574C317.649 117.048 315.601 114.999 313.074 114.999C310.547 114.999 308.499 117.048 308.499 119.574C308.499 122.101 310.547 124.149 313.074 124.149Z" fill="#FDCB6E"/>
<path d="M328.324 139.399C330.851 139.399 332.899 137.351 332.899 134.824C332.899 132.297 330.851 130.249 328.324 130.249C325.797 130.249 323.749 132.297 323.749 134.824C323.749 137.351 325.797 139.399 328.324 139.399Z" fill="#FDCB6E"/>
<path d="M343.574 124.149C346.1 124.149 348.149 122.101 348.149 119.574C348.149 117.048 346.1 114.999 343.574 114.999C341.047 114.999 338.999 117.048 338.999 119.574C338.999 122.101 341.047 124.149 343.574 124.149Z" fill="#FDCB6E"/>
<path d="M358.823 139.399C361.35 139.399 363.398 137.351 363.398 134.824C363.398 132.297 361.35 130.249 358.823 130.249C356.297 130.249 354.249 132.297 354.249 134.824C354.249 137.351 356.297 139.399 358.823 139.399Z" fill="#FDCB6E"/>
<path d="M282.574 154.649C285.101 154.649 287.149 152.601 287.149 150.074C287.149 147.547 285.101 145.499 282.574 145.499C280.048 145.499 277.999 147.547 277.999 150.074C277.999 152.601 280.048 154.649 282.574 154.649Z" fill="#FDCB6E"/>
<path d="M297.824 169.899C300.351 169.899 302.399 167.851 302.399 165.324C302.399 162.797 300.351 160.749 297.824 160.749C295.298 160.749 293.249 162.797 293.249 165.324C293.249 167.851 295.298 169.899 297.824 169.899Z" fill="#FDCB6E"/>
<path d="M313.074 154.649C315.601 154.649 317.649 152.601 317.649 150.074C317.649 147.547 315.601 145.499 313.074 145.499C310.547 145.499 308.499 147.547 308.499 150.074C308.499 152.601 310.547 154.649 313.074 154.649Z" fill="#FDCB6E"/>
<path d="M328.324 169.899C330.851 169.899 332.899 167.851 332.899 165.324C332.899 162.797 330.851 160.749 328.324 160.749C325.797 160.749 323.749 162.797 323.749 165.324C323.749 167.851 325.797 169.899 328.324 169.899Z" fill="#FDCB6E"/>
<path d="M343.574 154.649C346.1 154.649 348.149 152.601 348.149 150.074C348.149 147.547 346.1 145.499 343.574 145.499C341.047 145.499 338.999 147.547 338.999 150.074C338.999 152.601 341.047 154.649 343.574 154.649Z" fill="#FDCB6E"/>
<path d="M358.823 169.899C361.35 169.899 363.398 167.851 363.398 165.324C363.398 162.797 361.35 160.749 358.823 160.749C356.297 160.749 354.249 162.797 354.249 165.324C354.249 167.851 356.297 169.899 358.823 169.899Z" fill="#FDCB6E"/>
<path d="M313.074 185.149C315.601 185.149 317.649 183.1 317.649 180.574C317.649 178.047 315.601 175.999 313.074 175.999C310.547 175.999 308.499 178.047 308.499 180.574C308.499 183.1 310.547 185.149 313.074 185.149Z" fill="#FDCB6E"/>
<path d="M328.324 200.399C330.851 200.399 332.899 198.35 332.899 195.824C332.899 193.297 330.851 191.249 328.324 191.249C325.797 191.249 323.749 193.297 323.749 195.824C323.749 198.35 325.797 200.399 328.324 200.399Z" fill="#FDCB6E"/>
<path d="M343.574 185.149C346.1 185.149 348.149 183.1 348.149 180.574C348.149 178.047 346.1 175.999 343.574 175.999C341.047 175.999 338.999 178.047 338.999 180.574C338.999 183.1 341.047 185.149 343.574 185.149Z" fill="#FDCB6E"/>
<path d="M358.823 200.399C361.35 200.399 363.398 198.35 363.398 195.824C363.398 193.297 361.35 191.249 358.823 191.249C356.297 191.249 354.249 193.297 354.249 195.824C354.249 198.35 356.297 200.399 358.823 200.399Z" fill="#FDCB6E"/>
<path d="M343.574 215.648C346.1 215.648 348.149 213.6 348.149 211.073C348.149 208.547 346.1 206.498 343.574 206.498C341.047 206.498 338.999 208.547 338.999 211.073C338.999 213.6 341.047 215.648 343.574 215.648Z" fill="#FDCB6E"/>
<path d="M358.823 230.898C361.35 230.898 363.398 228.85 363.398 226.323C363.398 223.797 361.35 221.748 358.823 221.748C356.297 221.748 354.249 223.797 354.249 226.323C354.249 228.85 356.297 230.898 358.823 230.898Z" fill="#FDCB6E"/>
</g>
<g opacity="0.4" clip-path="url(#clip2_6_6184)">
<path d="M360 1.99211e-05L360 413.35C360 413.35 343.301 405.906 312.815 413.19C282.329 420.473 266.861 416.446 224.388 403.816C181.915 391.186 161.86 415.373 100.98 405.836C40.0993 396.299 48.26 427.451 0.000383813 413C-0.00995408 395.467 0.00835709 13.5625 0.000359623 4.03442e-05C37.1967 0.0107789 360 1.99211e-05 360 1.99211e-05Z" fill="#FFEAA7"/>
</g>
<defs>
<filter id="filter0_d_6_6184" x="-25.9523" y="-407.241" width="890.004" height="890.004" filterUnits="userSpaceOnUse" color-interpolation-filters="sRGB">
<feFlood flood-opacity="0" result="BackgroundImageFix"/>
<feColorMatrix in="SourceAlpha" type="matrix" values="0 0 0 0 0 0 0 0 0 0 0 0 0 0 0 0 0 0 127 0" result="hardAlpha"/>
<feOffset dx="-37.8165"/>
<feGaussianBlur stdDeviation="25.2115"/>
<feColorMatrix type="matrix" values="0 0 0 0 0 0 0 0 0 0 0 0 0 0 0 0 0 0 0.16 0"/>
<feBlend mode="normal" in2="BackgroundImageFix" result="effect1_dropShadow_6_6184"/>
<feBlend mode="normal" in="SourceGraphic" in2="effect1_dropShadow_6_6184" result="shape"/>
</filter>
<clipPath id="clip0_6_6184">
<rect width="783.667" height="578.247" fill="white" transform="translate(-329 -144)"/>
</clipPath>
<clipPath id="clip1_6_6184">
<rect width="143" height="195" fill="white" transform="translate(217 54)"/>
</clipPath>
<clipPath id="clip2_6_6184">
<rect width="360" height="420" fill="white"/>
</clipPath>
</defs>
</svg>
