<svg width="1440" height="727" viewBox="0 0 1440 727" fill="none" xmlns="http://www.w3.org/2000/svg">
<g opacity="0.4">
<rect x="598" y="222" width="1376.03" height="767.907" rx="99" transform="rotate(-45 598 222)" fill="#FFEAA7"/>
</g>
<g clip-path="url(#clip0_6_7213)">
<path d="M1393.7 113.661C1397.4 113.661 1400.39 110.668 1400.39 106.975C1400.39 103.282 1397.4 100.288 1393.7 100.288C1390.01 100.288 1387.02 103.282 1387.02 106.975C1387.02 110.668 1390.01 113.661 1393.7 113.661Z" fill="#FDCB6E"/>
<path d="M1415.99 91.3729C1419.69 91.3729 1422.68 88.3793 1422.68 84.6865C1422.68 80.9936 1419.69 78 1415.99 78C1412.3 78 1409.31 80.9936 1409.31 84.6865C1409.31 88.3793 1412.3 91.3729 1415.99 91.3729Z" fill="#FDCB6E"/>
<path d="M1438.28 113.661C1441.97 113.661 1444.97 110.668 1444.97 106.975C1444.97 103.282 1441.97 100.288 1438.28 100.288C1434.59 100.288 1431.59 103.282 1431.59 106.975C1431.59 110.668 1434.59 113.661 1438.28 113.661Z" fill="#FDCB6E"/>
<path d="M1349.13 158.238C1352.82 158.238 1355.81 155.244 1355.81 151.551C1355.81 147.858 1352.82 144.865 1349.13 144.865C1345.43 144.865 1342.44 147.858 1342.44 151.551C1342.44 155.244 1345.43 158.238 1349.13 158.238Z" fill="#FDCB6E"/>
<path d="M1371.42 135.949C1375.11 135.949 1378.1 132.956 1378.1 129.263C1378.1 125.57 1375.11 122.576 1371.42 122.576C1367.72 122.576 1364.73 125.57 1364.73 129.263C1364.73 132.956 1367.72 135.949 1371.42 135.949Z" fill="#FDCB6E"/>
<path d="M1393.7 158.238C1397.4 158.238 1400.39 155.244 1400.39 151.551C1400.39 147.858 1397.4 144.865 1393.7 144.865C1390.01 144.865 1387.02 147.858 1387.02 151.551C1387.02 155.244 1390.01 158.238 1393.7 158.238Z" fill="#FDCB6E"/>
<path d="M1415.99 135.949C1419.69 135.949 1422.68 132.956 1422.68 129.263C1422.68 125.57 1419.69 122.576 1415.99 122.576C1412.3 122.576 1409.31 125.57 1409.31 129.263C1409.31 132.956 1412.3 135.949 1415.99 135.949Z" fill="#FDCB6E"/>
<path d="M1438.28 158.238C1441.97 158.238 1444.97 155.244 1444.97 151.551C1444.97 147.858 1441.97 144.865 1438.28 144.865C1434.59 144.865 1431.59 147.858 1431.59 151.551C1431.59 155.244 1434.59 158.238 1438.28 158.238Z" fill="#FDCB6E"/>
<path d="M1304.55 202.814C1308.24 202.814 1311.24 199.82 1311.24 196.128C1311.24 192.435 1308.24 189.441 1304.55 189.441C1300.86 189.441 1297.86 192.435 1297.86 196.128C1297.86 199.82 1300.86 202.814 1304.55 202.814Z" fill="#FDCB6E"/>
<path d="M1326.84 180.526C1330.53 180.526 1333.53 177.532 1333.53 173.839C1333.53 170.147 1330.53 167.153 1326.84 167.153C1323.15 167.153 1320.15 170.147 1320.15 173.839C1320.15 177.532 1323.15 180.526 1326.84 180.526Z" fill="#FDCB6E"/>
<path d="M1349.13 202.814C1352.82 202.814 1355.81 199.82 1355.81 196.128C1355.81 192.435 1352.82 189.441 1349.13 189.441C1345.43 189.441 1342.44 192.435 1342.44 196.128C1342.44 199.82 1345.43 202.814 1349.13 202.814Z" fill="#FDCB6E"/>
<path d="M1371.42 180.526C1375.11 180.526 1378.1 177.532 1378.1 173.839C1378.1 170.147 1375.11 167.153 1371.42 167.153C1367.72 167.153 1364.73 170.147 1364.73 173.839C1364.73 177.532 1367.72 180.526 1371.42 180.526Z" fill="#FDCB6E"/>
<path d="M1393.7 202.814C1397.4 202.814 1400.39 199.82 1400.39 196.128C1400.39 192.435 1397.4 189.441 1393.7 189.441C1390.01 189.441 1387.02 192.435 1387.02 196.128C1387.02 199.82 1390.01 202.814 1393.7 202.814Z" fill="#FDCB6E"/>
<path d="M1415.99 180.526C1419.69 180.526 1422.68 177.532 1422.68 173.839C1422.68 170.147 1419.69 167.153 1415.99 167.153C1412.3 167.153 1409.31 170.147 1409.31 173.839C1409.31 177.532 1412.3 180.526 1415.99 180.526Z" fill="#FDCB6E"/>
<path d="M1438.28 202.814C1441.97 202.814 1444.97 199.82 1444.97 196.128C1444.97 192.435 1441.97 189.441 1438.28 189.441C1434.59 189.441 1431.59 192.435 1431.59 196.128C1431.59 199.82 1434.59 202.814 1438.28 202.814Z" fill="#FDCB6E"/>
<path d="M1326.84 225.102C1330.53 225.102 1333.53 222.109 1333.53 218.416C1333.53 214.723 1330.53 211.729 1326.84 211.729C1323.15 211.729 1320.15 214.723 1320.15 218.416C1320.15 222.109 1323.15 225.102 1326.84 225.102Z" fill="#FDCB6E"/>
<path d="M1349.13 247.391C1352.82 247.391 1355.81 244.397 1355.81 240.704C1355.81 237.011 1352.82 234.018 1349.13 234.018C1345.43 234.018 1342.44 237.011 1342.44 240.704C1342.44 244.397 1345.43 247.391 1349.13 247.391Z" fill="#FDCB6E"/>
<path d="M1371.42 225.102C1375.11 225.102 1378.1 222.109 1378.1 218.416C1378.1 214.723 1375.11 211.729 1371.42 211.729C1367.72 211.729 1364.73 214.723 1364.73 218.416C1364.73 222.109 1367.72 225.102 1371.42 225.102Z" fill="#FDCB6E"/>
<path d="M1393.7 247.391C1397.4 247.391 1400.39 244.397 1400.39 240.704C1400.39 237.011 1397.4 234.018 1393.7 234.018C1390.01 234.018 1387.02 237.011 1387.02 240.704C1387.02 244.397 1390.01 247.391 1393.7 247.391Z" fill="#FDCB6E"/>
<path d="M1415.99 225.102C1419.69 225.102 1422.68 222.109 1422.68 218.416C1422.68 214.723 1419.69 211.729 1415.99 211.729C1412.3 211.729 1409.31 214.723 1409.31 218.416C1409.31 222.109 1412.3 225.102 1415.99 225.102Z" fill="#FDCB6E"/>
<path d="M1438.28 247.391C1441.97 247.391 1444.97 244.397 1444.97 240.704C1444.97 237.011 1441.97 234.018 1438.28 234.018C1434.59 234.018 1431.59 237.011 1431.59 240.704C1431.59 244.397 1434.59 247.391 1438.28 247.391Z" fill="#FDCB6E"/>
<path d="M1371.42 269.679C1375.11 269.679 1378.1 266.685 1378.1 262.992C1378.1 259.299 1375.11 256.306 1371.42 256.306C1367.72 256.306 1364.73 259.299 1364.73 262.992C1364.73 266.685 1367.72 269.679 1371.42 269.679Z" fill="#FDCB6E"/>
<path d="M1393.7 291.967C1397.4 291.967 1400.39 288.973 1400.39 285.281C1400.39 281.588 1397.4 278.594 1393.7 278.594C1390.01 278.594 1387.02 281.588 1387.02 285.281C1387.02 288.973 1390.01 291.967 1393.7 291.967Z" fill="#FDCB6E"/>
<path d="M1415.99 269.679C1419.69 269.679 1422.68 266.685 1422.68 262.992C1422.68 259.299 1419.69 256.306 1415.99 256.306C1412.3 256.306 1409.31 259.299 1409.31 262.992C1409.31 266.685 1412.3 269.679 1415.99 269.679Z" fill="#FDCB6E"/>
<path d="M1438.28 291.967C1441.97 291.967 1444.97 288.973 1444.97 285.281C1444.97 281.588 1441.97 278.594 1438.28 278.594C1434.59 278.594 1431.59 281.588 1431.59 285.281C1431.59 288.973 1434.59 291.967 1438.28 291.967Z" fill="#FDCB6E"/>
<path d="M1415.99 314.255C1419.69 314.255 1422.68 311.262 1422.68 307.569C1422.68 303.876 1419.69 300.882 1415.99 300.882C1412.3 300.882 1409.31 303.876 1409.31 307.569C1409.31 311.262 1412.3 314.255 1415.99 314.255Z" fill="#FDCB6E"/>
<path d="M1438.28 336.543C1441.97 336.543 1444.97 333.55 1444.97 329.857C1444.97 326.164 1441.97 323.171 1438.28 323.171C1434.59 323.171 1431.59 326.164 1431.59 329.857C1431.59 333.55 1434.59 336.543 1438.28 336.543Z" fill="#FDCB6E"/>
</g>
<defs>
<clipPath id="clip0_6_7213">
<rect width="209" height="285" fill="white" transform="translate(1231 78)"/>
</clipPath>
</defs>
</svg>
