<svg width="53" height="53" viewBox="0 0 53 53" fill="none" xmlns="http://www.w3.org/2000/svg">
<rect width="53" height="53" rx="12" fill="#74B9FF"/>
<path d="M34.65 21H17.85C16.6902 21 15.75 21.9402 15.75 23.1V33.6C15.75 34.7598 16.6902 35.7 17.85 35.7H34.65C35.8098 35.7 36.75 34.7598 36.75 33.6V23.1C36.75 21.9402 35.8098 21 34.65 21Z" stroke="white" stroke-width="2" stroke-linecap="round" stroke-linejoin="round"/>
<path d="M30.4498 35.7V18.9C30.4498 18.3431 30.2286 17.809 29.8347 17.4151C29.4409 17.0213 28.9068 16.8 28.3498 16.8H24.1498C23.5928 16.8 23.0587 17.0213 22.6649 17.4151C22.2711 17.809 22.0498 18.3431 22.0498 18.9V35.7" stroke="white" stroke-width="2" stroke-linecap="round" stroke-linejoin="round"/>
</svg>
