<svg width="215" height="146" viewBox="0 0 215 146" fill="none" xmlns="http://www.w3.org/2000/svg">
<g clip-path="url(#clip0_16_2184)">
<rect opacity="0.24" width="631.694" height="352.523" rx="45.4479" transform="matrix(0.707107 0.707107 0.707107 -0.707107 -299.684 231.866)" fill="#6C5CE7"/>
<g style="mix-blend-mode:multiply" opacity="0.24">
<rect width="631.694" height="207.751" rx="45.4479" transform="matrix(0.707107 0.707107 0.707107 -0.707107 -43.9153 179.532)" fill="#FDCB6E"/>
</g>
</g>
<g clip-path="url(#clip1_16_2184)">
<path d="M173.793 129.594C173.793 130.924 174.871 132.002 176.201 132.002C177.531 132.002 178.609 130.924 178.609 129.594C178.609 128.264 177.531 127.186 176.201 127.186C174.871 127.186 173.793 128.264 173.793 129.594Z" fill="#A29BFE"/>
<path d="M181.82 137.62C181.82 138.95 182.898 140.028 184.228 140.028C185.558 140.028 186.636 138.95 186.636 137.62C186.636 136.29 185.558 135.212 184.228 135.212C182.898 135.212 181.82 136.29 181.82 137.62Z" fill="#A29BFE"/>
<path d="M173.793 145.647C173.793 146.977 174.871 148.055 176.201 148.055C177.531 148.055 178.609 146.977 178.609 145.647C178.609 144.317 177.531 143.239 176.201 143.239C174.871 143.239 173.793 144.317 173.793 145.647Z" fill="#A29BFE"/>
<path d="M157.74 113.541C157.74 114.871 158.818 115.949 160.148 115.949C161.478 115.949 162.556 114.871 162.556 113.541C162.556 112.211 161.478 111.133 160.148 111.133C158.818 111.133 157.74 112.211 157.74 113.541Z" fill="#A29BFE"/>
<path d="M165.767 121.567C165.767 122.897 166.845 123.975 168.175 123.975C169.504 123.975 170.583 122.897 170.583 121.567C170.583 120.237 169.504 119.159 168.175 119.159C166.845 119.159 165.767 120.237 165.767 121.567Z" fill="#A29BFE"/>
<path d="M157.74 129.594C157.74 130.924 158.818 132.002 160.148 132.002C161.478 132.002 162.556 130.924 162.556 129.594C162.556 128.264 161.478 127.186 160.148 127.186C158.818 127.186 157.74 128.264 157.74 129.594Z" fill="#A29BFE"/>
<path d="M165.767 137.62C165.767 138.95 166.845 140.028 168.175 140.028C169.504 140.028 170.583 138.95 170.583 137.62C170.583 136.29 169.504 135.212 168.175 135.212C166.845 135.212 165.767 136.29 165.767 137.62Z" fill="#A29BFE"/>
<path d="M157.74 145.647C157.74 146.977 158.818 148.055 160.148 148.055C161.478 148.055 162.556 146.977 162.556 145.647C162.556 144.317 161.478 143.239 160.148 143.239C158.818 143.239 157.74 144.317 157.74 145.647Z" fill="#A29BFE"/>
<path d="M141.687 97.4877C141.687 98.8176 142.765 99.8956 144.095 99.8956C145.425 99.8956 146.503 98.8176 146.503 97.4877C146.503 96.1578 145.425 95.0797 144.095 95.0797C142.765 95.0797 141.687 96.1578 141.687 97.4877Z" fill="#A29BFE"/>
<path d="M149.714 105.514C149.714 106.844 150.792 107.922 152.122 107.922C153.451 107.922 154.53 106.844 154.53 105.514C154.53 104.184 153.451 103.106 152.122 103.106C150.792 103.106 149.714 104.184 149.714 105.514Z" fill="#A29BFE"/>
<path d="M141.687 113.541C141.687 114.871 142.765 115.949 144.095 115.949C145.425 115.949 146.503 114.871 146.503 113.541C146.503 112.211 145.425 111.133 144.095 111.133C142.765 111.133 141.687 112.211 141.687 113.541Z" fill="#A29BFE"/>
<path d="M149.714 121.567C149.714 122.897 150.792 123.975 152.122 123.975C153.451 123.975 154.53 122.897 154.53 121.567C154.53 120.237 153.451 119.159 152.122 119.159C150.792 119.159 149.714 120.237 149.714 121.567Z" fill="#A29BFE"/>
<path d="M141.687 129.594C141.687 130.924 142.765 132.002 144.095 132.002C145.425 132.002 146.503 130.924 146.503 129.594C146.503 128.264 145.425 127.186 144.095 127.186C142.765 127.186 141.687 128.264 141.687 129.594Z" fill="#A29BFE"/>
<path d="M149.714 137.62C149.714 138.95 150.792 140.028 152.122 140.028C153.451 140.028 154.53 138.95 154.53 137.62C154.53 136.29 153.451 135.212 152.122 135.212C150.792 135.212 149.714 136.29 149.714 137.62Z" fill="#A29BFE"/>
<path d="M141.687 145.647C141.687 146.977 142.765 148.055 144.095 148.055C145.425 148.055 146.503 146.977 146.503 145.647C146.503 144.317 145.425 143.239 144.095 143.239C142.765 143.239 141.687 144.317 141.687 145.647Z" fill="#A29BFE"/>
<path d="M133.66 105.514C133.66 106.844 134.738 107.922 136.068 107.922C137.398 107.922 138.476 106.844 138.476 105.514C138.476 104.184 137.398 103.106 136.068 103.106C134.738 103.106 133.66 104.184 133.66 105.514Z" fill="#A29BFE"/>
<path d="M125.634 113.541C125.634 114.871 126.712 115.949 128.042 115.949C129.372 115.949 130.45 114.871 130.45 113.541C130.45 112.211 129.372 111.133 128.042 111.133C126.712 111.133 125.634 112.211 125.634 113.541Z" fill="#A29BFE"/>
<path d="M133.66 121.567C133.66 122.897 134.738 123.975 136.068 123.975C137.398 123.975 138.476 122.897 138.476 121.567C138.476 120.237 137.398 119.159 136.068 119.159C134.738 119.159 133.66 120.237 133.66 121.567Z" fill="#A29BFE"/>
<path d="M125.634 129.594C125.634 130.924 126.712 132.002 128.042 132.002C129.372 132.002 130.45 130.924 130.45 129.594C130.45 128.264 129.372 127.186 128.042 127.186C126.712 127.186 125.634 128.264 125.634 129.594Z" fill="#A29BFE"/>
<path d="M133.66 137.62C133.66 138.95 134.738 140.028 136.068 140.028C137.398 140.028 138.476 138.95 138.476 137.62C138.476 136.29 137.398 135.212 136.068 135.212C134.738 135.212 133.66 136.29 133.66 137.62Z" fill="#A29BFE"/>
<path d="M125.634 145.647C125.634 146.977 126.712 148.055 128.042 148.055C129.372 148.055 130.45 146.977 130.45 145.647C130.45 144.317 129.372 143.239 128.042 143.239C126.712 143.239 125.634 144.317 125.634 145.647Z" fill="#A29BFE"/>
<path d="M117.607 121.567C117.607 122.897 118.685 123.975 120.015 123.975C121.345 123.975 122.423 122.897 122.423 121.567C122.423 120.237 121.345 119.159 120.015 119.159C118.685 119.159 117.607 120.237 117.607 121.567Z" fill="#A29BFE"/>
<path d="M109.581 129.594C109.581 130.924 110.659 132.002 111.989 132.002C113.319 132.002 114.397 130.924 114.397 129.594C114.397 128.264 113.319 127.186 111.989 127.186C110.659 127.186 109.581 128.264 109.581 129.594Z" fill="#A29BFE"/>
<path d="M117.607 137.62C117.607 138.95 118.685 140.028 120.015 140.028C121.345 140.028 122.423 138.95 122.423 137.62C122.423 136.29 121.345 135.212 120.015 135.212C118.685 135.212 117.607 136.29 117.607 137.62Z" fill="#A29BFE"/>
<path d="M109.581 145.647C109.581 146.977 110.659 148.055 111.989 148.055C113.319 148.055 114.397 146.977 114.397 145.647C114.397 144.317 113.319 143.239 111.989 143.239C110.659 143.239 109.581 144.317 109.581 145.647Z" fill="#A29BFE"/>
<path d="M101.554 137.62C101.554 138.95 102.632 140.028 103.962 140.028C105.292 140.028 106.37 138.95 106.37 137.62C106.37 136.29 105.292 135.212 103.962 135.212C102.632 135.212 101.554 136.29 101.554 137.62Z" fill="#A29BFE"/>
<path d="M93.5276 145.647C93.5276 146.977 94.6057 148.055 95.9355 148.055C97.2654 148.055 98.3435 146.977 98.3435 145.647C98.3435 144.317 97.2654 143.239 95.9355 143.239C94.6057 143.239 93.5276 144.317 93.5276 145.647Z" fill="#A29BFE"/>
</g>
<defs>
<clipPath id="clip0_16_2184">
<rect width="555.87" height="154.036" fill="white" transform="matrix(1 0 0 -1 -341 154.036)"/>
</clipPath>
<clipPath id="clip1_16_2184">
<rect width="75.2662" height="102.636" fill="white" transform="translate(186.636 71) rotate(90)"/>
</clipPath>
</defs>
</svg>
